# xmcd
#
# Track frame offsets:
#	150
#	16056
#	34120
#	55175
#	76061
#	94023
#	110801
#	131240
#	147709
#	164468
#	184989
#	203587
#
# Disc length: 2931 seconds
#
# Revision: 1
# Processed by: cddbd v1.5.2PL0 Copyright (c) Steve Scherf et al.
# Submitted via: audiograbber 1.83.01
#
DISCID=a50b710c
DTITLE=The Kat - I'm the Kat
DYEAR=2011
DGENRE=Blues
TTITLE0=I'm a Woman
TTITLE1=The Trains
TTITLE2=Never Felt No Blues
TTITLE3=I'm the Kat
TTITLE4=Pour toi le blues
TTITLE5=Nothing Like the Blues
TTITLE6=Droit au blues
TTITLE7=Lipstick and Tears
TTITLE8=Probablement
TTITLE9=Blues and Go
TTITLE10=Vers un autre sort
TTITLE11=Redescends sur terre
EXTD=
EXTT0=
EXTT1=
EXTT2=
EXTT3=
EXTT4=
EXTT5=
EXTT6=
EXTT7=
EXTT8=
EXTT9=
EXTT10=
EXTT11=
PLAYORDER=
